<?xml version="1.0" standalone="no"?><!DOCTYPE svg PUBLIC "-//W3C//DTD SVG 1.1//EN" "http://www.w3.org/Graphics/SVG/1.1/DTD/svg11.dtd"><svg t="1626402886161" class="icon" viewBox="0 0 1024 1024" version="1.1" xmlns="http://www.w3.org/2000/svg" p-id="5043" xmlns:xlink="http://www.w3.org/1999/xlink" width="200" height="200"><defs><style type="text/css"></style></defs><path d="M763.5 897.6C869.7 820 938.6 694.6 938.6 553c0-235.6-191-426.6-426.6-426.6S85.4 317.4 85.4 553c0 139.6 67 263.5 170.7 341.4l63-109.5c-24.6-20.5-45.9-44.9-63-72.1-29-46.3-45.7-101.1-45.7-159.7 0-166.6 135.1-301.7 301.7-301.7s301.6 135 301.6 301.6c0 58.5-16.7 113.2-45.5 159.4-20.9 33.6-48.3 62.7-80.4 85.8l75.7 99.4z m-75.7-99.4l75.8 99.4c106.1-77.6 175-203 175-344.6" fill="#FFFFFF" p-id="5044"></path><path d="M763.5 917.6c-6 0-12-2.7-15.9-7.9l-75.8-99.4c-3.3-4.3-4.7-9.7-3.9-15.1 0.8-5.3 3.7-10.1 8.1-13.3 30.2-21.7 55.4-48.6 75.1-80.1 27.8-44.6 42.5-96 42.5-148.8 0-155.3-126.4-281.7-281.7-281.7S230.3 397.7 230.3 553c0 52.9 14.8 104.5 42.7 149.1 15.9 25.5 35.7 48.1 58.8 67.4 7.5 6.2 9.4 16.9 4.5 25.3l-63 109.5c-2.9 5-7.7 8.5-13.3 9.6-5.6 1.2-11.4-0.2-16-3.6-54.3-40.7-99.2-94.1-130-154.4-32.3-63.2-48.6-131.4-48.6-202.9 0-60.3 11.8-118.8 35.1-173.9C123 326 155.2 278.2 196.2 237.2S285 164 338.2 141.5c55.1-23.3 113.6-35.1 173.9-35.1S630.9 118.2 686 141.5C739 164 786.8 196.2 827.8 237.2c41 41 73.2 88.8 95.7 142 23.3 55.1 35.1 113.6 35.1 173.9 0 71.4-17.3 142.5-50 205.5-31.6 60.9-77.7 114.6-133.3 155.3-3.5 2.5-7.7 3.7-11.8 3.7z m-47.7-115.7l51.5 67.6c95.1-76.9 151.4-193.8 151.4-316.5C918.6 328.8 736.2 146.4 512 146.4S105.4 328.8 105.4 553c0 121.5 52.5 233.7 144.9 311.3l43.2-75.1c-21-19.4-39.3-41.5-54.4-65.8-31.9-51-48.8-109.9-48.8-170.3 0-85.9 33.5-166.7 94.2-227.5C345.3 264.8 426.1 231.3 512 231.3s166.7 33.5 227.5 94.2c60.8 60.8 94.2 141.5 94.2 227.5 0 60.3-16.8 119.1-48.6 170-18.8 30.1-42 56.6-69.3 78.9z" fill="#202D47" p-id="5045"></path><path d="M298.7 339.7c54.6-54.6 130-88.4 213.3-88.4 166.6 0 301.7 135.1 301.7 301.7 0 58.5-16.7 113.2-45.5 159.4-20.9 33.6-48.3 62.7-80.4 85.8l75.8 99.4c106.1-77.6 175-203 175-344.6 0-235.6-191-426.6-426.6-426.6-117.8 0-224.5 47.8-301.7 125l88.4 88.3z m389.1 458.5l75.8 99.4c106.1-77.6 175-203 175-344.6" fill="#227CE5" p-id="5046"></path><path d="M512 206.4c222.1 0 404.6 169.8 424.8 386.6 1.2-13.2 1.9-26.5 1.9-40 0-235.6-191-426.6-426.6-426.6-117.8 0-224.5 47.8-301.7 125L253 294c71.8-55 161.6-87.6 259-87.6z" fill="#2571CB" p-id="5047"></path><path d="M763.5 917.6c-6 0-12-2.7-15.9-7.9l-75.8-99.4c-3.3-4.3-4.7-9.7-3.9-15.1 0.8-5.3 3.7-10.1 8.1-13.3 30.2-21.7 55.4-48.6 75.1-80.1 27.8-44.6 42.5-96 42.5-148.8 0-155.3-126.4-281.7-281.7-281.7-75.2 0-146 29.3-199.2 82.5-3.8 3.8-8.8 5.9-14.1 5.9s-10.4-2.1-14.1-5.9l-88.4-88.4c-7.8-7.8-7.8-20.5 0-28.3 41-41 88.8-73.2 142-95.7 55.1-23.3 113.6-35.1 173.9-35.1s118.8 11.8 173.9 35.1C739 164 786.8 196.2 827.8 237.2s73.2 88.8 95.7 142c23.3 55.1 35.1 113.6 35.1 173.9 0 71.4-17.3 142.5-50 205.5-31.6 60.9-77.7 114.6-133.3 155.3-3.5 2.5-7.7 3.7-11.8 3.7z m-47.7-115.7l51.5 67.6c95.1-76.9 151.4-193.8 151.4-316.5C918.6 328.8 736.2 146.4 512 146.4c-101.9 0-198.1 37.2-273 105.3l60.2 60.2C357.9 259.8 432.8 231.3 512 231.3c85.9 0 166.7 33.5 227.5 94.2 60.8 60.8 94.2 141.5 94.2 227.5 0 60.3-16.8 119.1-48.6 170-18.8 30.1-42 56.6-69.3 78.9z" fill="#202D47" p-id="5048"></path><path d="M725.3 339.7c54.6 54.6 88.4 130 88.4 213.3 0 58.5-16.7 113.2-45.5 159.4-20.9 33.6-48.3 62.7-80.4 85.8l75.8 99.4c106.1-77.6 175-203 175-344.6 0-117.8-47.8-224.5-125-301.7l-88.3 88.4z m-37.5 458.5l75.8 99.4c106.1-77.6 175-203 175-344.6" fill="#2DCD54" p-id="5049"></path><path d="M813.7 251.3l-43 43c75.4 77 122 182.4 122 298.7 0 117.6-47.6 224.1-124.5 301.2C871.6 816.4 938.6 692.5 938.6 553c0-117.8-47.7-224.5-124.9-301.7z" fill="#31B952" p-id="5050"></path><path d="M763.5 917.6c-6 0-12-2.7-15.9-7.9l-75.8-99.4c-3.3-4.3-4.7-9.7-3.9-15.1 0.8-5.3 3.7-10.1 8.1-13.3 30.2-21.7 55.4-48.6 75.1-80.1 27.8-44.6 42.5-96 42.5-148.8 0-75.2-29.3-146-82.5-199.2-3.8-3.8-5.9-8.8-5.9-14.1 0-5.3 2.1-10.4 5.9-14.1l88.4-88.4c7.8-7.8 20.5-7.8 28.3 0 41 41 73.2 88.8 95.7 142 23.3 55.1 35.1 113.6 35.1 173.9 0 71.4-17.3 142.5-50 205.5-31.6 60.9-77.7 114.6-133.3 155.3-3.5 2.5-7.7 3.7-11.8 3.7z m-47.7-115.7l51.5 67.6c95.1-76.9 151.4-193.8 151.4-316.5 0-101.9-37.2-198.1-105.3-273l-60.2 60.2c52.1 58.8 80.5 133.7 80.5 212.9 0 60.3-16.8 119.1-48.6 170-18.8 30-42 56.5-69.3 78.8z" fill="#202D47" p-id="5051"></path><path d="M500.2 449.8l199.5-19.3-133.4 189.8-0.2-98.7-28.7-39.7z" fill="#2DCD54" p-id="5052"></path><path d="M566.3 640.3c-2 0-4-0.3-6-0.9-8.3-2.6-14-10.3-14-19l-0.2-92.3-23.6-32.5L487 465c-6.1-5.2-8.4-13.6-6-21.2 2.4-7.6 9.2-13.1 17.1-13.8l199.5-19.3c7.8-0.8 15.3 3.1 19.2 9.8 3.9 6.8 3.6 15.2-0.9 21.6L582.6 631.8c-3.8 5.5-9.9 8.5-16.3 8.5z m-17.7-175.1l1.9 1.6c1.2 1 2.2 2.2 3.1 3.4l28.7 39.6c2.5 3.4 3.8 7.5 3.8 11.7l0.1 35.7 72.1-102.7-109.7 10.7z" fill="#202D47" p-id="5053"></path><path d="M494.5 551.1m-99.8 0a99.8 99.8 0 1 0 199.6 0 99.8 99.8 0 1 0-199.6 0Z" fill="#FFFFFF" p-id="5054"></path><path d="M494.5 670.9c-10.1 0-20.3-1.3-30.5-4-63.9-16.8-102.1-82.4-85.3-146.3 8.1-30.9 27.8-56.9 55.5-73 27.6-16.1 59.9-20.5 90.8-12.4 63.9 16.8 102.1 82.4 85.3 146.3-14.1 53.7-62.8 89.4-115.8 89.4z m-0.2-199.6c-13.9 0-27.7 3.7-40.1 10.9-18.4 10.7-31.5 28-36.9 48.6-11.2 42.5 14.3 86.2 56.8 97.4 42.5 11.2 86.2-14.3 97.4-56.8 11.2-42.5-14.3-86.2-56.8-97.4-6.7-1.8-13.5-2.7-20.4-2.7z" fill="#202D47" p-id="5055"></path></svg>