<?xml version="1.0" standalone="no"?><!DOCTYPE svg PUBLIC "-//W3C//DTD SVG 1.1//EN" "http://www.w3.org/Graphics/SVG/1.1/DTD/svg11.dtd"><svg t="1626413309983" class="icon" viewBox="0 0 1024 1024" version="1.1" xmlns="http://www.w3.org/2000/svg" p-id="8632" xmlns:xlink="http://www.w3.org/1999/xlink" width="250" height="250"><defs><style type="text/css"></style></defs><path d="M897.862 438.225l-48.407-14.661a338.153 338.153 0 0 0-36.539-87.739l23.273-44.45a46.545 46.545 0 0 0-8.145-54.924l-40.495-41.426a46.545 46.545 0 0 0-54.924-8.843l-44.45 23.273a329.076 329.076 0 0 0-87.739-34.677l-14.661-48.64a46.545 46.545 0 0 0-44.451-33.047h-58.648a46.545 46.545 0 0 0-44.45 33.047l-14.662 48.407a330.24 330.24 0 0 0-87.739 36.539l-44.45-24.902a46.545 46.545 0 0 0-54.924 7.913l-41.426 42.356a46.545 46.545 0 0 0-8.843 54.924l23.273 44.45a336.756 336.756 0 0 0-34.677 87.739l-48.64 14.661a46.545 46.545 0 0 0-33.047 44.451v58.648a46.545 46.545 0 0 0 33.047 44.45l48.407 14.662a338.153 338.153 0 0 0 36.539 87.739l-24.902 44.45a46.545 46.545 0 0 0 8.145 54.924l41.426 41.426a46.545 46.545 0 0 0 54.923 7.912l44.451-23.272a329.076 329.076 0 0 0 87.738 36.072l14.662 48.64a46.545 46.545 0 0 0 45.15 32.582h58.647a46.545 46.545 0 0 0 44.45-33.047l14.662-48.407a330.24 330.24 0 0 0 87.739-36.539l44.45 23.273a46.545 46.545 0 0 0 54.924-7.913l41.426-41.425a46.545 46.545 0 0 0 8.843-54.226l-23.273-44.45a336.756 336.756 0 0 0 36.073-87.739l48.64-14.661a46.545 46.545 0 0 0 31.651-44.451v-58.648a46.545 46.545 0 0 0-33.047-44.45z m-61.906 117.528a46.545 46.545 0 0 0-31.418 32.814 302.545 302.545 0 0 1-31.418 76.102 46.545 46.545 0 0 0 0 46.546l23.273 44.45-41.658 40.262-44.684-23.272a46.545 46.545 0 0 0-46.546 0 305.338 305.338 0 0 1-75.869 31.418 46.545 46.545 0 0 0-33.047 31.418l-13.265 48.873h-58.415l-14.662-48.408a46.545 46.545 0 0 0-33.047-31.418 305.338 305.338 0 0 1-75.87-31.418 46.545 46.545 0 0 0-23.272-6.516 46.545 46.545 0 0 0-21.643 5.352l-44.451 23.273-41.891-40.494 23.272-44.684a46.545 46.545 0 0 0-1.163-46.546 302.545 302.545 0 0 1-31.418-76.101 46.545 46.545 0 0 0-31.419-32.815l-47.709-13.265v-58.415l48.408-14.662a46.545 46.545 0 0 0 31.418-32.814 302.545 302.545 0 0 1 31.418-76.102 46.545 46.545 0 0 0 1.164-45.382L228.77 269.5l40.494-41.426 44.684 23.272a46.545 46.545 0 0 0 45.382-1.163 305.338 305.338 0 0 1 75.869-30.72 46.545 46.545 0 0 0 33.047-31.418l14.43-48.408h58.414l14.662 48.408a46.545 46.545 0 0 0 33.047 31.418 305.338 305.338 0 0 1 75.87 31.418 46.545 46.545 0 0 0 46.545 1.164l44.45-23.273 41.426 41.425-23.273 44.684a46.545 46.545 0 0 0 0 45.382 302.545 302.545 0 0 1 31.418 76.102 46.545 46.545 0 0 0 31.419 32.814l48.407 14.43v58.414z" p-id="8633"></path><path d="M512 325.818A186.182 186.182 0 1 0 698.182 512 186.182 186.182 0 0 0 512 325.818z m0 325.818A139.636 139.636 0 1 1 651.636 512 139.636 139.636 0 0 1 512 651.636z" p-id="8634"></path></svg>