<?xml version="1.0" standalone="no"?><!DOCTYPE svg PUBLIC "-//W3C//DTD SVG 1.1//EN" "http://www.w3.org/Graphics/SVG/1.1/DTD/svg11.dtd"><svg t="1626413643420" class="icon" viewBox="0 0 1024 1024" version="1.1" xmlns="http://www.w3.org/2000/svg" p-id="11250" xmlns:xlink="http://www.w3.org/1999/xlink" width="250" height="250"><defs><style type="text/css"></style></defs><path d="M281.6 51.2H179.2a51.2 51.2 0 0 0-51.2 51.2v819.2a51.2 51.2 0 0 0 51.2 51.2h665.6a51.2 51.2 0 0 0 51.2-51.2V102.4a51.2 51.2 0 0 0-51.2-51.2h-204.8v409.6L464.1792 333.4144 281.6 460.8V51.2zM179.2 0h665.6a102.4 102.4 0 0 1 102.4 102.4v819.2a102.4 102.4 0 0 1-102.4 102.4H179.2a102.4 102.4 0 0 1-102.4-102.4V102.4a102.4 102.4 0 0 1 102.4-102.4z m153.6 51.2v311.4496l131.9424-92.0576L588.8 360.448V51.2H332.8z" p-id="11251"></path></svg>