<?xml version="1.0" standalone="no"?><!DOCTYPE svg PUBLIC "-//W3C//DTD SVG 1.1//EN" "http://www.w3.org/Graphics/SVG/1.1/DTD/svg11.dtd"><svg t="1626413566226" class="icon" viewBox="0 0 1024 1024" version="1.1" xmlns="http://www.w3.org/2000/svg" p-id="10398" xmlns:xlink="http://www.w3.org/1999/xlink" width="250" height="250"><defs><style type="text/css"></style></defs><path d="M450.226 117.842h-145.22c-14.146 0-25.612-11.467-25.612-25.611s11.467-25.612 25.611-25.612h145.22c14.146 0 25.612 11.467 25.612 25.612s-11.467 25.61-25.611 25.61z" p-id="10399"></path><path d="M161.935 857.67c-14.146 0-25.612-11.465-25.612-25.61V168.77c0-56.326 45.825-102.15 102.15-102.15h66.533c14.145 0 25.611 11.466 25.611 25.61s-11.467 25.612-25.61 25.612h-66.533c-28.08 0-50.927 22.846-50.927 50.927v663.29c-0.001 14.146-11.468 25.612-25.612 25.612zM533.85 347.297c-6.27 0-12.35-1.312-17.491-3.5-13.473-5.736-21.843-17.801-21.843-31.488V92.231c0-14.146 11.466-25.612 25.612-25.612s25.61 11.467 25.61 25.612v188.204l27.6-26.506a35.875 35.875 0 0 1 49.88 0.026l22.036 21.17V92.231c0-14.146 11.467-25.612 25.612-25.612s25.611 11.467 25.611 25.612V310.9a35.932 35.932 0 0 1-21.872 33.099 35.934 35.934 0 0 1-39.028-7.139l-37.316-35.848-37.319 35.841c-7.753 7.46-17.639 10.444-27.092 10.444z" p-id="10400"></path><path d="M845 956.898H238.448c-56.311 0-102.124-45.813-102.124-102.124v-22.715c0-14.145 11.467-25.61 25.612-25.61s25.61 11.465 25.61 25.61v22.715c0 28.067 22.835 50.9 50.902 50.9h606.554c14.145 0 25.611 11.466 25.611 25.611s-11.466 25.613-25.611 25.613z" p-id="10401"></path><path d="M161.95 874.368c-0.3 0-0.602-0.006-0.905-0.016-14.136-0.49-25.199-12.349-24.707-26.486 0.976-28.12 6.253-48.251 16.608-63.355 13.712-20.002 35.248-30.143 64.007-30.143h612.344c3.193-2.72 6.406-6.045 8.53-8.521V134.588c-1.827-5.106-11.64-14.918-16.746-16.746H450.225c-14.146 0-25.612-11.467-25.612-25.611s11.467-25.612 25.612-25.612h371.948c19.715 0 36.511 13.853 44.768 22.109 8.257 8.257 22.11 25.053 22.11 44.768v618.975c0 10.781-6.187 19.494-12.239 26.593-4.572 5.364-10.217 10.94-15.494 15.301a89.636 89.636 0 0 1-3.14 2.484c-5.417 4.076-12.825 8.743-22.25 8.743H216.953c-14.967 0-27.894 0-29.423 44.052-0.48 13.834-11.846 24.723-25.581 24.724z" p-id="10402"></path><path d="M285.73 805.006c-14.146 0-25.612-11.466-25.612-25.611V92.231c0-14.146 11.467-25.612 25.611-25.612s25.612 11.467 25.612 25.612v687.164c0 14.145-11.468 25.611-25.612 25.611z m558.087 151.931c-0.512 0-1.03-0.012-1.558-0.033-6.594-0.28-29.833-2.322-52.017-16.836-19.368-12.672-42.452-37.874-42.452-85.975 0-62.033 35.535-100.567 92.737-100.567 14.145 0 25.611 11.466 25.611 25.611s-11.466 25.611-25.611 25.611c-12.423 0-41.514 0-41.514 49.345 0 20.894 6.55 35.153 20.022 43.59 10.55 6.606 22.035 7.809 24.879 8.01 1.424-0.06 2.874 0 4.338 0.189 13.612 1.74 23.515 13.922 22.354 27.596-0.818 9.593-8.637 23.458-26.79 23.459z m-1.805-51.094c-1.13 0.12-2.263 0.331-3.39 0.63a25.448 25.448 0 0 1 3.39-0.63z" p-id="10403"></path></svg>