<?xml version="1.0" standalone="no"?><!DOCTYPE svg PUBLIC "-//W3C//DTD SVG 1.1//EN" "http://www.w3.org/Graphics/SVG/1.1/DTD/svg11.dtd"><svg t="1626937904512" class="icon" viewBox="0 0 1024 1024" version="1.1" xmlns="http://www.w3.org/2000/svg" p-id="1957" data-spm-anchor-id="a313x.7781069.0.i1" xmlns:xlink="http://www.w3.org/1999/xlink" width="250" height="250"><defs><style type="text/css">@font-face { font-family: feedback-iconfont; src: url("//at.alicdn.com/t/font_1031158_1uhr8ri0pk5.eot?#iefix") format("embedded-opentype"), url("//at.alicdn.com/t/font_1031158_1uhr8ri0pk5.woff2") format("woff2"), url("//at.alicdn.com/t/font_1031158_1uhr8ri0pk5.woff") format("woff"), url("//at.alicdn.com/t/font_1031158_1uhr8ri0pk5.ttf") format("truetype"), url("//at.alicdn.com/t/font_1031158_1uhr8ri0pk5.svg#iconfont") format("svg"); }
</style></defs><path d="M597.8119 125.973086c-120.82074 0-219.1093 98.28856-219.1093 219.110323 0 83.477226 46.939055 156.192342 115.809609 193.166441C351.096868 582.459748 246.583536 716.215078 246.583536 873.951589c0 11.58178 9.356089 20.919449 20.919449 20.919449 11.562337 0 20.920472-9.337669 20.920472-20.919449 0-170.59026 138.800229-309.370023 307.83711-309.451888 2.221598 0.228197 4.40738 0.079818 6.493901-0.38988 118.529557-2.636037 214.148311-99.875708 214.148311-219.026412C816.90278 224.26267 718.615243 125.973086 597.8119 125.973086zM597.8119 522.313903c-97.755418 0-177.269379-79.493495-177.269379-177.230494 0-97.777931 79.513962-177.268356 177.269379-177.268356 97.738022 0 177.248913 79.491449 177.248913 177.268356C775.060813 442.820408 695.549921 522.313903 597.8119 522.313903zM846.504982 625.994264c-8.15268-8.192589-21.390169-8.192589-29.581736-0.041956-8.1711 8.15268-8.192589 21.391193-0.039909 29.583782 58.245566 58.408271 90.320075 136.001487 90.320075 218.415498 0 11.58178 9.356089 20.919449 20.920472 20.919449 11.562337 0 20.919449-9.337669 20.919449-20.919449C949.043333 780.38354 912.638191 692.289156 846.504982 625.994264zM376.496351 527.685237c0-0.026606-0.004093-0.054235-0.004093-0.080841 0-0.027629 0.004093-0.054235 0.004093-0.081864 0-11.564383-9.357112-20.919449-20.920472-20.919449-75.896574 0-137.634684-65.968457-137.634684-147.054217 0-81.08576 61.739133-147.054217 137.634684-147.054217 11.56336 0 20.920472-9.376555 20.920472-20.919449 0-11.56336-9.357112-20.920472-20.920472-20.920472-98.961896 0-179.476651 84.743056-179.476651 188.894138 0 69.298296 35.650965 129.993656 88.658226 162.862251C151.89906 562.510394 70.395792 675.208129 70.395792 807.614741c0 11.564383 9.357112 20.921495 20.919449 20.921495 11.56336 0 20.921495-9.358135 20.921495-20.921495 0-142.845359 109.156072-259.008009 243.339144-259.008009C367.13924 548.606733 376.496351 539.248597 376.496351 527.685237z" p-id="1958" fill="#1296db" data-spm-anchor-id="a313x.7781069.0.i0" class="selected"></path></svg>