<?xml version="1.0" standalone="no"?><!DOCTYPE svg PUBLIC "-//W3C//DTD SVG 1.1//EN" "http://www.w3.org/Graphics/SVG/1.1/DTD/svg11.dtd"><svg t="1626404334916" class="icon" viewBox="0 0 1024 1024" version="1.1" xmlns="http://www.w3.org/2000/svg" p-id="7448" xmlns:xlink="http://www.w3.org/1999/xlink" width="200" height="200"><defs><style type="text/css"></style></defs><path d="M734.72 638.528c4.864 1.024 9.28 1.856 13.184 2.432 17.984 2.688 26.816 12.928 54.016 12.736 27.2-0.256 39.616-10.368 59.392-13.568a188.8 188.8 0 0 0 3.648-0.64c81.408 48.32 134.4 112.512 159.04 192.512H576c-0.832-60.288 52.032-124.8 158.72-193.472z m20.032-30.4l-0.064-0.128c-44.608-16.448-64.448-50.368-64.448-103.168 0-66.752 51.072-120.832 114.048-120.832s114.048 54.08 114.048 120.832c0 49.024-26.112 84.48-65.536 102.592-17.664 2.368-33.28 11.072-50.88 11.072-11.52 0-24.896-8.064-36.288-9.088a213.504 213.504 0 0 1-10.88-1.28zM832 323.2h-64V257.408H572.8V64H64v896h704v-63.744h64V960a64 64 0 0 1-64 64H64a64 64 0 0 1-64-64V64a64 64 0 0 1 64-64h564.48a32 32 0 0 1 22.784 9.6l171.584 175.104a32 32 0 0 1 9.152 22.4V323.2zM192 448h320v64H192V448z m0 192h320v64H192v-64z m0 192h320v64H192v-64z" p-id="7449"></path></svg>