<?xml version="1.0" standalone="no"?><!DOCTYPE svg PUBLIC "-//W3C//DTD SVG 1.1//EN" "http://www.w3.org/Graphics/SVG/1.1/DTD/svg11.dtd"><svg t="1626404303422" class="icon" viewBox="0 0 1024 1024" version="1.1" xmlns="http://www.w3.org/2000/svg" p-id="7006" xmlns:xlink="http://www.w3.org/1999/xlink" width="200" height="200"><defs><style type="text/css"></style></defs><path d="M557.29 99.39l-408.2-1a19.42 19.42 0 0 0-19.5 19.33v791.52a19.41 19.41 0 0 0 19.5 19.33l408.2 1a19.41 19.41 0 0 0 19.5-19.33V118.72a19.42 19.42 0 0 0-19.5-19.33z m-344.6 60.84a12 12 0 0 1 12.05-11.94h87.88a12 12 0 0 1 12 11.94v87.94a12 12 0 0 1-12 11.94h-87.88a12 12 0 0 1-12.05-11.94z m0 166.82a12 12 0 0 1 12.05-11.95h87.88a12 12 0 0 1 12 11.95V415a12 12 0 0 1-12 11.95h-87.88A12 12 0 0 1 212.69 415z m0 254.75v-87.94a12 12 0 0 1 12.05-11.94h87.88a12 12 0 0 1 12 11.94v87.94a12 12 0 0 1-12 11.94h-87.88a12 12 0 0 1-12.05-11.94z m204.12 347.09H289.57V694.17a12 12 0 0 1 12-11.95h103.19a12 12 0 0 1 12.05 11.95z m76.94-347.09a12 12 0 0 1-12 11.94h-87.92a12 12 0 0 1-12-11.94v-87.94a12 12 0 0 1 12-11.94h87.88a12 12 0 0 1 12 11.94z m0-166.82a12 12 0 0 1-12 11.95h-87.92a12 12 0 0 1-12-11.95v-87.93a12 12 0 0 1 12-11.95h87.88a12 12 0 0 1 12 11.95z m0-166.81a12 12 0 0 1-12 11.94h-87.92a12 12 0 0 1-12-11.94v-87.94a12 12 0 0 1 12-11.94h87.88a12 12 0 0 1 12 11.94zM895.37 310.65a17.28 17.28 0 0 0-17.3-17.2l-261-79.54a19.41 19.41 0 0 0-19.5 19.33v675a19.41 19.41 0 0 0 19.5 19.33l261.44 0.93A17.29 17.29 0 0 0 896 911.24z m-52.66 347.63a5.88 5.88 0 0 1-5.89 5.84h-180a5.88 5.88 0 0 1-5.89-5.84v-30.73a5.88 5.88 0 0 1 5.89-5.84h180a5.88 5.88 0 0 1 5.89 5.84z m0-119.74a5.88 5.88 0 0 1-5.89 5.84h-180a5.88 5.88 0 0 1-5.89-5.84v-30.73a5.88 5.88 0 0 1 5.89-5.84h180a5.88 5.88 0 0 1 5.89 5.84z m0-119.74a5.88 5.88 0 0 1-5.89 5.84h-180a5.88 5.88 0 0 1-5.89-5.84v-30.73a5.88 5.88 0 0 1 5.89-5.84h180a5.88 5.88 0 0 1 5.89 5.84z" p-id="7007"></path></svg>