<?xml version="1.0" standalone="no"?><!DOCTYPE svg PUBLIC "-//W3C//DTD SVG 1.1//EN" "http://www.w3.org/Graphics/SVG/1.1/DTD/svg11.dtd"><svg t="1637656040553" class="icon" viewBox="0 0 1024 1024" version="1.1" xmlns="http://www.w3.org/2000/svg" p-id="2068" xmlns:xlink="http://www.w3.org/1999/xlink" width="880" height="880"><defs><style type="text/css"></style></defs><path d="M431.010909 495.243636H512a238.08 238.08 0 0 1 169.192727 69.818182 232.727273 232.727273 0 0 1 23.272728 25.6 34.909091 34.909091 0 0 0 55.854545-42.123636 321.163636 321.163636 0 0 0-28.625455-32.814546 309.061818 309.061818 0 0 0-137.774545-79.592727 218.065455 218.065455 0 1 0-234.821818-1.629091A309.527273 309.527273 0 0 0 121.949091 734.487273V884.363636A110.08 110.08 0 0 0 232.727273 993.745455h238.545454a34.909091 34.909091 0 0 0 0-69.818182H232.727273A40.261818 40.261818 0 0 1 191.767273 884.363636v-149.876363a239.709091 239.709091 0 0 1 239.243636-239.243637z m45.149091-391.447272a148.247273 148.247273 0 1 1-148.48 148.247272 148.48 148.48 0 0 1 148.48-148.247272z" p-id="2069"></path><path d="M765.905455 619.985455A188.741818 188.741818 0 1 0 954.181818 808.727273a188.974545 188.974545 0 0 0-188.276363-188.741818z m0 58.181818a129.629091 129.629091 0 0 1 80.058181 27.461818L651.636364 873.425455a130.56 130.56 0 0 1 113.338181-195.258182z m0 261.12a128.698182 128.698182 0 0 1-74.007273-23.272728l190.836363-165.46909a127.301818 127.301818 0 0 1 13.73091 57.94909 130.56 130.56 0 0 1-130.56 130.792728z" p-id="2070"></path></svg>